<svg xmlns="http://www.w3.org/2000/svg" viewBox="0 0 200 200" fill="none" stroke="#1C2B4A" stroke-linecap="round" stroke-linejoin="round">
  <!-- Corner botanical for section decorations -->
  <!-- Main stem -->
  <path d="M20 180 Q40 140 80 100 Q110 70 140 40" stroke-width="1.5"/>
  <!-- Leaves along stem -->
  <path d="M35 158 Q48 142 58 152 Q48 164 35 158" stroke-width="1.2" fill="#1C2B4A" fill-opacity="0.08"/>
  <path d="M55 135 Q70 118 80 130 Q68 142 55 135" stroke-width="1.2" fill="#1C2B4A" fill-opacity="0.08"/>
  <path d="M78 108 Q95 92 104 105 Q92 118 78 108" stroke-width="1.2" fill="#1C2B4A" fill-opacity="0.08"/>
  <path d="M105 82 Q122 66 130 80 Q118 94 105 82" stroke-width="1.2" fill="#1C2B4A" fill-opacity="0.08"/>
  <!-- Flowers -->
  <circle cx="140" cy="40" r="7" stroke-width="1.3"/>
  <path d="M140 30 Q144 35 140 40 Q136 35 140 30" stroke-width="1.2" fill="#1C2B4A" fill-opacity="0.12"/>
  <path d="M140 40 Q144 45 140 50 Q136 45 140 40" stroke-width="1.2" fill="#1C2B4A" fill-opacity="0.12"/>
  <path d="M130 40 Q135 36 140 40 Q135 44 130 40" stroke-width="1.2" fill="#1C2B4A" fill-opacity="0.12"/>
  <path d="M140 40 Q145 36 150 40 Q145 44 140 40" stroke-width="1.2" fill="#1C2B4A" fill-opacity="0.12"/>
  <circle cx="140" cy="40" r="3" fill="#C4956A" stroke="none"/>
  <!-- Small side branches -->
  <path d="M65 125 Q55 110 50 98" stroke-width="1"/>
  <circle cx="50" cy="98" r="4" stroke-width="1"/>
  <circle cx="50" cy="98" r="1.5" fill="#C4956A" stroke="none"/>
  <path d="M95 96 Q88 82 85 70" stroke-width="1"/>
  <circle cx="85" cy="70" r="4" stroke-width="1"/>
  <circle cx="85" cy="70" r="1.5" fill="#C4956A" stroke="none"/>
  <!-- Berries -->
  <circle cx="45" cy="148" r="2.5" fill="#C4956A" fill-opacity="0.4" stroke="none"/>
  <circle cx="72" cy="120" r="2" fill="#C4956A" fill-opacity="0.4" stroke="none"/>
  <circle cx="100" cy="92" r="2" fill="#C4956A" fill-opacity="0.4" stroke="none"/>
  <circle cx="128" cy="64" r="2.5" fill="#C4956A" fill-opacity="0.4" stroke="none"/>
</svg>
